<?xml version="1.0" encoding="UTF-8"?>
<svg version="1.1" xmlns="http://www.w3.org/2000/svg" width="189" height="266">
<path d="M0 0 C62.37 0 124.74 0 189 0 C189 87.78 189 175.56 189 266 C126.63 266 64.26 266 0 266 C0 178.22 0 90.44 0 0 Z " fill="#ED1C25" transform="translate(0,0)"/>
<path d="M0 0 C6.54325963 5.26305666 11.06475496 10.99934071 12.15625 19.50390625 C12.47785221 27.20895908 10.54224468 33.65800646 5.625 39.625 C0.69881631 44.85321186 -4.63923773 47.92159786 -11.859375 48.55078125 C-18.68276504 48.71871442 -23.4278243 48.15045752 -29.125 44.3125 C-30.0325 43.714375 -30.94 43.11625 -31.875 42.5 C-37.27849342 37.24660362 -40.39205405 30.13464787 -40.5625 22.625 C-40.40787335 15.22111223 -38.19783967 9.78500539 -33.29296875 4.2421875 C-23.68546076 -4.81577861 -11.62851424 -6.27939769 0 0 Z " fill="#ED1C25" transform="translate(111.125,151.6875)"/>
<path d="M0 0 C0.33 0 0.66 0 1 0 C1 23.1 1 46.2 1 70 C-14.18 70 -29.36 70 -45 70 C-43.60218994 66.50547486 -42.5463683 64.06738706 -40.54833984 61.04956055 C-40.05906006 60.30579163 -39.56978027 59.56202271 -39.06567383 58.79571533 C-38.53611084 58.00074646 -38.00654785 57.20577759 -37.4609375 56.38671875 C-36.90704346 55.54751892 -36.35314941 54.70831909 -35.7824707 53.84368896 C-33.98443301 51.12198373 -32.17993591 48.40463446 -30.375 45.6875 C-29.14372943 43.82776289 -27.91277304 41.96781772 -26.68212891 40.10766602 C-24.24782569 36.42999952 -21.81070791 32.75422357 -19.37109375 29.08007812 C-16.87378356 25.31865832 -14.38225282 21.55350726 -11.89608765 17.78471375 C-10.05876642 15.0002927 -8.21678259 12.21897205 -6.375 9.4375 C-5.7257959 8.45289795 -5.0765918 7.4682959 -4.40771484 6.45385742 C-3.82715332 5.58092041 -3.2465918 4.7079834 -2.6484375 3.80859375 C-2.15520996 3.06407959 -1.66198242 2.31956543 -1.15380859 1.55249023 C-0.77305176 1.04016846 -0.39229492 0.52784668 0 0 Z " fill="#ED1C25" transform="translate(48,109)"/>
<path d="M0 0 C5.36266428 2.35459341 9.4502184 5.93275435 11.70703125 11.38671875 C12.80919919 18.20079758 13.23984932 25.16902086 9.20703125 31.07421875 C4.29113969 36.33387895 -0.67501788 38.57195926 -7.85546875 38.88671875 C-13.80817793 38.63971837 -17.37314061 37.15860893 -21.7578125 32.99609375 C-26.19146209 28.11265362 -27.82337868 23.0358745 -27.59765625 16.46484375 C-26.72045959 10.48191269 -23.91524147 6.56577742 -19.16796875 2.94921875 C-13.14810206 -1.21925498 -7.19474647 -1.9243189 0 0 Z " fill="#ED1C25" transform="translate(104.29296875,105.61328125)"/>
<path d="M0 0 C15.18 0 30.36 0 46 0 C39.3360161 7.77464789 39.3360161 7.77464789 36.5625 10.4375 C34.24848247 12.71645666 32.05450802 15.03724946 29.9375 17.5 C25.89584234 22.18650641 21.65814461 26.68305185 17.42480469 31.19555664 C14.49106652 34.32490348 11.56813875 37.46189414 8.68359375 40.63671875 C7.92224121 41.47444824 7.92224121 41.47444824 7.14550781 42.32910156 C5.76541035 43.85155335 4.38846893 45.37686435 3.01171875 46.90234375 C2.34785156 47.59457031 1.68398437 48.28679688 1 49 C0.67 49 0.34 49 0 49 C0 32.83 0 16.66 0 0 Z " fill="#ED1B24" transform="translate(72,0)"/>
<path d="M0 0 C6.2189027 3.48895132 11.60693513 8.4800744 13.671875 15.42578125 C14.6404265 23.75532413 13.74623942 29.04728889 8.984375 36.11328125 C7.22509847 37.91329892 5.45117133 39.4511553 3.4375 40.95703125 C1.83116489 42.06849902 1.83116489 42.06849902 0.984375 44.11328125 C1.809375 44.27828125 2.634375 44.44328125 3.484375 44.61328125 C10.78819964 47.74349181 15.60601807 54.08629884 18.984375 61.11328125 C21.414426 69.01904717 20.51845501 78.00967955 16.8671875 85.36328125 C12.57429627 92.5423536 6.12693964 98.17724014 -2.015625 100.55078125 C-11.57363508 102.25893968 -19.89949848 101.27645723 -28.05859375 95.72265625 C-35.21944599 89.92068642 -39.24647671 82.53520609 -40.33984375 73.40625 C-40.69531656 64.64200647 -38.20903639 58.49275237 -32.640625 51.80078125 C-29.68857526 48.62018572 -26.80360678 46.22750364 -23.015625 44.11328125 C-22.355625 44.11328125 -21.695625 44.11328125 -21.015625 44.11328125 C-22.0984375 43.06140625 -22.0984375 43.06140625 -23.203125 41.98828125 C-29.34955251 35.77220583 -33.99073995 30.03950172 -34.390625 21.05078125 C-33.68806889 13.67394213 -30.51500435 7.97722811 -25.015625 3.11328125 C-16.93840885 -2.34021333 -9.09483706 -3.83802124 0 0 Z M-27.515625 11.30078125 C-30.35483503 16.62430006 -30.99317789 21.62706852 -29.3671875 27.42578125 C-27.15014006 33.03472178 -24.08589394 36.81937104 -19.015625 40.11328125 C-13.14889968 42.06885636 -6.42056796 42.11880162 -0.703125 39.61328125 C3.73698415 36.94921576 6.98316519 33.94953828 8.984375 29.11328125 C10.08654294 22.29920242 10.51719307 15.33097914 6.484375 9.42578125 C1.63454535 4.23680267 -3.37644143 1.94292852 -10.453125 1.48828125 C-17.71373426 1.77063828 -23.37345356 5.3770307 -27.515625 11.30078125 Z M-30.54296875 54.14453125 C-35.85603989 61.24741681 -37.18400424 68.33875318 -36.015625 77.11328125 C-33.57545174 85.36754079 -29.20827015 90.67589955 -21.91796875 95.09765625 C-16.1369369 98.18403876 -9.0504965 97.86507782 -2.73046875 96.6875 C4.06257044 94.48617716 9.74649391 89.56526514 13.421875 83.48828125 C14.82395014 80.45979894 15.67160219 78.39739574 15.984375 75.11328125 C16.07912109 74.14455078 16.07912109 74.14455078 16.17578125 73.15625 C16.56282586 66.02713793 14.7758126 59.71579031 10.37109375 54.03125 C4.16102565 47.49071265 -1.92111523 45.53782373 -10.765625 44.80078125 C-18.55662943 44.94974883 -25.38838004 48.39283888 -30.54296875 54.14453125 Z " fill="#FCE9EA" transform="translate(107.015625,102.88671875)"/>
<path d="M0 0 C1.98 0 3.96 0 6 0 C6 25.08 6 50.16 6 76 C9.3 76 12.6 76 16 76 C16 77.32 16 78.64 16 80 C12.7 80 9.4 80 6 80 C6 86.27 6 92.54 6 99 C4.68 99 3.36 99 2 99 C2 92.73 2 86.46 2 80 C-14.17 80 -30.34 80 -47 80 C-47 71 -47 71 -45.234375 68.3515625 C-44.65018799 67.44615723 -44.65018799 67.44615723 -44.05419922 66.52246094 C-43.62381348 65.89629883 -43.19342773 65.27013672 -42.75 64.625 C-42.30543457 63.94727539 -41.86086914 63.26955078 -41.40283203 62.57128906 C-39.95223546 60.36903341 -38.47658831 58.18489372 -37 56 C-35.98013304 54.4620223 -34.96191838 52.92294772 -33.9453125 51.3828125 C-31.99191917 48.43056682 -30.02967345 45.48471793 -28.0546875 42.546875 C-27.5714502 41.82725586 -27.08821289 41.10763672 -26.59033203 40.36621094 C-25.44710941 38.66524169 -24.30203056 36.96551948 -23.15576172 35.26660156 C-19.96287163 30.51223655 -16.81363697 25.73997692 -13.79019165 20.87628174 C-12.35805154 18.57311373 -10.91084632 16.27957687 -9.46289062 13.98632812 C-8.72694104 12.81171559 -7.99827821 11.63251113 -7.27636719 10.44921875 C-6.21150583 8.70826999 -5.12070841 6.98627567 -4.0234375 5.265625 C-3.07863525 3.74630371 -3.07863525 3.74630371 -2.11474609 2.19628906 C-1.41687988 1.47151367 -0.71901367 0.74673828 0 0 Z M1 6 C-0.60682218 8.2894801 -2.15501056 10.59841002 -3.6875 12.9375 C-4.77304772 14.58098669 -5.85902251 16.22419133 -6.9453125 17.8671875 C-7.57211914 18.8169043 -8.19892578 19.76662109 -8.84472656 20.74511719 C-11.32133317 24.4852757 -13.8117203 28.21604791 -16.3046875 31.9453125 C-28.15239089 49.6499921 -28.15239089 49.6499921 -39.875 67.4375 C-40.53447632 68.43728882 -40.53447632 68.43728882 -41.20727539 69.45727539 C-43.33095298 72.47980129 -43.33095298 72.47980129 -44 76 C-28.82 76 -13.64 76 2 76 C2 52.9 2 29.8 2 6 C1.67 6 1.34 6 1 6 Z " fill="#FDF1F2" transform="translate(47,103)"/>
<path d="M0 0 C1.32 0 2.64 0 4 0 C4.33 15.84 4.66 31.68 5 48 C10.41427771 42.64264026 10.41427771 42.64264026 15.4765625 37.0546875 C19.00104531 32.97194863 22.66861026 29.04237329 26.375 25.125 C30.63457957 20.60600952 34.86799912 16.07357659 39 11.4375 C40.33232108 9.95742151 41.66557109 8.47817837 43 7 C43.63421875 6.28714844 44.2684375 5.57429687 44.921875 4.83984375 C49.33244537 0.09942303 49.33244537 0.09942303 52.9375 -0.4375 C53.9584375 -0.2209375 53.9584375 -0.2209375 55 0 C50.52163436 5.31674922 45.85335126 10.40189381 41.0625 15.4375 C36.52915723 20.20376428 32.08408941 25.01483728 27.7746582 29.98461914 C24.62029557 33.56685378 21.33779429 37.02863805 18.0625 40.5 C17.37865234 41.22703125 16.69480469 41.9540625 15.99023438 42.703125 C14.32805493 44.46991714 12.66463361 46.23552048 11 48 C12.52782038 51.61629367 14.6738405 53.91049244 17.44970703 56.66088867 C18.83091232 58.03702583 18.83091232 58.03702583 20.24002075 59.44096375 C21.24591896 60.43333157 22.25185032 61.42566578 23.2578125 62.41796875 C24.28679301 63.44067707 25.31525888 64.46390343 26.3432312 65.48762512 C29.04499176 68.17610392 31.75227029 70.85895073 34.46118164 73.54022217 C38.80552566 77.84137774 43.14308253 82.14935298 47.47750473 86.46050453 C48.99527827 87.96801924 50.5163979 89.47209752 52.03787231 90.97587585 C52.95237152 91.88384415 53.86687073 92.79181244 54.80908203 93.72729492 C55.62023468 94.53019455 56.43138733 95.33309418 57.26712036 96.1603241 C59 98 59 98 59 99 C55.91266717 99.31377246 54.46377375 99.34078282 51.91943359 97.47119141 C51.25250488 96.77171387 50.58557617 96.07223633 49.8984375 95.3515625 C48.79242188 94.21460937 48.79242188 94.21460937 47.6640625 93.0546875 C46.90867188 92.25289063 46.15328125 91.45109375 45.375 90.625 C43.86399983 89.05274306 42.35106005 87.48234725 40.8359375 85.9140625 C40.17126465 85.2123291 39.5065918 84.5105957 38.82177734 83.78759766 C36.9250213 81.81508723 36.9250213 81.81508723 34 80 C34 79.34 34 78.68 34 78 C33.19127441 77.68023193 33.19127441 77.68023193 32.36621094 77.35400391 C29.13516903 75.50512252 26.72587765 72.97212517 24.140625 70.3359375 C23.65319824 69.84649658 23.16577148 69.35705566 22.66357422 68.8527832 C20.85353489 67.03232193 19.05227943 65.203144 17.25 63.375 C13.2075 59.29125 9.165 55.2075 5 51 C4.67 67.17 4.34 83.34 4 100 C2.68 100 1.36 100 0 100 C0 67 0 34 0 0 Z " fill="#FCEBEC" transform="translate(68,0)"/>
<path d="M0 0 C1.32 0 2.64 0 4 0 C4.09290533 10.53595962 4.16386899 21.07182089 4.20724869 31.60810757 C4.2280746 36.50117456 4.25630051 41.39396016 4.30175781 46.28686523 C4.34539436 51.01366483 4.36917464 55.74019469 4.37950897 60.46718025 C4.38686849 62.26561793 4.40123967 64.06404176 4.42292023 65.86236382 C4.6518439 85.6474545 4.6518439 85.6474545 -1.58221436 92.82054138 C-7.9568034 99.24336163 -16.23871297 100.29275805 -24.9375 100.4375 C-32.78299826 100.36225662 -40.10293728 99.44522936 -46.15625 94.09375 C-53.23987979 86.31336974 -54.20521031 79.26051544 -54 69 C-52.35 69 -50.7 69 -49 69 C-48.97421875 69.94101563 -48.9484375 70.88203125 -48.921875 71.8515625 C-48.73845607 81.24677232 -48.73845607 81.24677232 -44 89 C-37.08168106 95.1123012 -30.28572819 95.30106708 -21.26171875 95.21875 C-14.64513357 94.77500297 -8.64344185 92.91658549 -4 88 C-1.35213069 82.84498691 -0.55624574 78.57695038 -0.56762695 72.76977539 C-0.5574353 71.97871399 -0.54724365 71.18765259 -0.53674316 70.37261963 C-0.506762 67.78089173 -0.49737024 65.18953433 -0.48828125 62.59765625 C-0.47142349 60.79160854 -0.45327178 58.98557249 -0.43388367 57.17955017 C-0.38649657 52.44334556 -0.35661429 47.70718822 -0.33044434 42.9708252 C-0.30058171 38.13084583 -0.25407101 33.29102913 -0.20898438 28.45117188 C-0.12307978 18.96753321 -0.0556775 9.48386095 0 0 Z " fill="#FCE7E8" transform="translate(57,0)"/>
<path d="M0 0 C19.14 0 38.28 0 58 0 C58 1.32 58 2.64 58 4 C49.09 4 40.18 4 31 4 C31 35.35 31 66.7 31 99 C29.68 99 28.36 99 27 99 C27 67.65 27 36.3 27 4 C18.09 4 9.18 4 0 4 C0 2.68 0 1.36 0 0 Z " fill="#FDF3F3" transform="translate(126,0)"/>
<path d="M0 0 C0.99 0 1.98 0 3 0 C3 32.67 3 65.34 3 99 C2.34 99 1.68 99 1 99 C0.67 66.33 0.34 33.66 0 0 Z " fill="#FDFCFC" transform="translate(68,0)"/>
<path d="M0 0 C0.66 0 1.32 0 2 0 C2.21858306 6.65637311 2.41360964 13.3131334 2.59204102 19.97070312 C2.65558442 22.23681355 2.72457874 24.5027778 2.79907227 26.76855469 C2.90503434 30.01995483 2.99156899 33.27137185 3.07421875 36.5234375 C3.11157639 37.54118256 3.14893402 38.55892761 3.18742371 39.60751343 C3.20767105 40.54833771 3.2279184 41.48916199 3.2487793 42.45849609 C3.28541939 43.70425919 3.28541939 43.70425919 3.32279968 44.97518921 C3.21627579 45.64337677 3.10975189 46.31156433 3 47 C2.01 47.66 1.02 48.32 0 49 C0 32.83 0 16.66 0 0 Z " fill="#EF3942" transform="translate(72,0)"/>
<path d="M0 0 C1.21236328 0.02707031 1.21236328 0.02707031 2.44921875 0.0546875 C3.37154297 0.08949219 3.37154297 0.08949219 4.3125 0.125 C4.3125 0.455 4.3125 0.785 4.3125 1.125 C2.0025 1.455 -0.3075 1.785 -2.6875 2.125 C-2.6875 2.785 -2.6875 3.445 -2.6875 4.125 C-4.9975 4.785 -7.3075 5.445 -9.6875 6.125 C-7.58496928 1.27300604 -5.24222142 -0.15194845 0 0 Z " fill="#FAD4D5" transform="translate(96.6875,100.875)"/>
</svg>
